<svg xmlns="http://www.w3.org/2000/svg" viewBox="0 0 720 520" role="img" aria-labelledby="t d"><title id="t">Cadre contractuel</title><desc id="d">Documents contractuels structurés et signés.</desc><rect width="720" height="520" rx="28" fill="#f7f0f2"/><rect x="205" y="80" width="285" height="360" rx="18" fill="#eadce1" transform="rotate(-7 205 80)"/><rect x="240" y="70" width="285" height="360" rx="18" fill="#fff" stroke="#e5d5db" stroke-width="2"/><path d="M290 135h175M290 163h130M290 225h175M290 253h175M290 281h145" stroke="#ddcbd1" stroke-width="8" stroke-linecap="round"/><rect x="290" y="315" width="175" height="62" rx="10" fill="#f7eff2"/><path d="m310 345 22 17 47-38" fill="none" stroke="#7c233c" stroke-width="6" stroke-linecap="round" stroke-linejoin="round"/><circle cx="520" cy="350" r="66" fill="#7c233c"/><path d="M489 350h62M520 319v62" stroke="#fff" stroke-width="8" stroke-linecap="round"/><path d="M110 150h55M110 174h38M560 135h55M560 159h38" stroke="#c7aab4" stroke-width="7" stroke-linecap="round"/></svg>