<svg xmlns="http://www.w3.org/2000/svg" viewBox="0 0 720 520" role="img" aria-labelledby="t d"><title id="t">Intelligence artificielle et validation humaine</title><desc id="d">Une proposition assistée par IA reste soumise à une validation humaine.</desc><rect width="720" height="520" rx="28" fill="#f7f0f2"/><rect x="105" y="95" width="510" height="330" rx="24" fill="#fff" stroke="#e7d9de" stroke-width="2"/><rect x="135" y="125" width="450" height="48" rx="12" fill="#f5eaed"/><circle cx="160" cy="149" r="7" fill="#7c233c"/><path d="M183 149h130" stroke="#c7aab4" stroke-width="7" stroke-linecap="round"/><rect x="145" y="205" width="190" height="170" rx="16" fill="#f8f3f4"/><path d="M190 252h100M190 278h76M190 304h90" stroke="#cdb8bf" stroke-width="8" stroke-linecap="round"/><circle cx="240" cy="235" r="15" fill="#7c233c"/><path d="M385 245h150M385 271h125M385 297h110" stroke="#e0d2d7" stroke-width="9" stroke-linecap="round"/><rect x="380" y="326" width="170" height="34" rx="17" fill="#7c233c"/><path d="m404 343 9 9 17-19" fill="none" stroke="#fff" stroke-width="4" stroke-linecap="round" stroke-linejoin="round"/><text x="447" y="348" font-family="Arial,sans-serif" font-size="12" fill="#fff" text-anchor="middle">VALIDATION</text><circle cx="570" cy="105" r="34" fill="#7c233c"/><path d="M557 105h26m-13-13v26" stroke="#fff" stroke-width="5" stroke-linecap="round"/></svg>