<svg xmlns="http://www.w3.org/2000/svg" viewBox="0 0 1400 800"><rect width="1400" height="800" fill="#f4f7fa"/><rect x="55" y="45" width="1290" height="710" rx="28" fill="#fff" stroke="#dce3e9" stroke-width="2"/><rect x="55" y="45" width="1290" height="70" rx="28" fill="#fafbfc"/><circle cx="88" cy="78" r="6" fill="#cfd7df"/><circle cx="110" cy="78" r="6" fill="#cfd7df"/><circle cx="132" cy="78" r="6" fill="#cfd7df"/><text x="175" y="84" font-family="Arial,sans-serif" font-size="20" font-weight="700" fill="#131d27">Review Defense</text><text x="1040" y="84" font-family="Arial,sans-serif" font-size="14" font-weight="700" fill="#667482">RESSOURCES</text><text x="95" y="178" font-family="Arial,sans-serif" font-size="38" font-weight="700" fill="#131d27">Publications &amp; analyses</text>
<rect x="95" y="225" width="1215" height="375" rx="20" fill="#fff" stroke="#dce3e9"/>
<rect x="130" y="260" width="1140" height="82" rx="14" fill="#f8fafc" stroke="#e2e7ec"/><text x="155" y="294" font-family="Arial,sans-serif" font-size="15" font-weight="700" fill="#0878ee">01</text><text x="220" y="292" font-family="Arial,sans-serif" font-size="20" font-weight="700" fill="#131d27">Comprendre les avis en ligne</text><text x="220" y="318" font-family="Arial,sans-serif" font-size="13" fill="#687887">Analyse et contexte</text><text x="1205" y="305" font-family="Arial,sans-serif" font-size="24" fill="#0878ee">→</text><rect x="130" y="368" width="1140" height="82" rx="14" fill="#f8fafc" stroke="#e2e7ec"/><text x="155" y="402" font-family="Arial,sans-serif" font-size="15" font-weight="700" fill="#0878ee">02</text><text x="220" y="400" font-family="Arial,sans-serif" font-size="20" font-weight="700" fill="#131d27">Structurer un dossier</text><text x="220" y="426" font-family="Arial,sans-serif" font-size="13" fill="#687887">Méthodes et suivi</text><text x="1205" y="413" font-family="Arial,sans-serif" font-size="24" fill="#0878ee">→</text><rect x="130" y="476" width="1140" height="82" rx="14" fill="#f8fafc" stroke="#e2e7ec"/><text x="155" y="510" font-family="Arial,sans-serif" font-size="15" font-weight="700" fill="#0878ee">03</text><text x="220" y="508" font-family="Arial,sans-serif" font-size="20" font-weight="700" fill="#131d27">IA et réputation</text><text x="220" y="534" font-family="Arial,sans-serif" font-size="13" fill="#687887">Outils sous contrôle</text><text x="1205" y="521" font-family="Arial,sans-serif" font-size="24" fill="#0878ee">→</text></svg>