<svg xmlns="http://www.w3.org/2000/svg" viewBox="0 0 720 420" preserveAspectRatio="xMidYMid meet"><defs><filter id="s" x="-40%" y="-40%" width="180%" height="200%"><feDropShadow dx="0" dy="8" stdDeviation="7" flood-color="#0869ff" flood-opacity=".14"/></filter><radialGradient id="g"><stop stop-color="#cfe3ff" stop-opacity=".65"/><stop offset="1" stop-color="#cfe3ff" stop-opacity="0"/></radialGradient></defs><ellipse cx="360" cy="350" rx="70" ry="15" fill="url(#g)"/><g filter="url(#s)"><g opacity="0.58" transform="translate(302 310) rotate(-7 54 23) translateZ(0)"><rect width="108" height="46" rx="10" fill="#fff" stroke="#c8ddfa"/><circle cx="15" cy="15" r="7" fill="#0869ff"/><circle cx="15" cy="15" r="2.7" fill="#fff"/><text x="27" y="18" font-family="Arial,sans-serif" font-size="8" font-weight="700" fill="#0869ff">★★★★★</text><rect x="27" y="27" width="63" height="4" rx="2" fill="#d8e7fb"/><rect x="27" y="36" width="43" height="3" rx="1.5" fill="#edf3fb"/></g><g opacity="0.592" transform="translate(312 283) rotate(5 54 23) translateZ(2)"><rect width="108" height="46" rx="10" fill="#fff" stroke="#c8ddfa"/><circle cx="15" cy="15" r="7" fill="#0869ff"/><circle cx="15" cy="15" r="2.7" fill="#fff"/><text x="27" y="18" font-family="Arial,sans-serif" font-size="8" font-weight="700" fill="#0869ff">★★★★★</text><rect x="27" y="27" width="63" height="4" rx="2" fill="#d8e7fb"/><rect x="27" y="36" width="43" height="3" rx="1.5" fill="#edf3fb"/></g></g></svg>