<svg xmlns="http://www.w3.org/2000/svg" viewBox="0 0 720 420"><defs><linearGradient id="b" x1="0" y1="0" x2="0" y2="1"><stop stop-color="#f9fbff"/><stop offset="1" stop-color="#eaf3ff"/></linearGradient><filter id="s"><feDropShadow dx="0" dy="8" stdDeviation="8" flood-color="#0869ff" flood-opacity=".12"/></filter></defs><rect width="720" height="420" rx="22" fill="url(#b)"/><ellipse cx="360" cy="330" rx="188" ry="20" fill="#0869ff" opacity=".07"/><g filter="url(#s)"><g transform="translate(158 245) rotate(-6 60 25)"><rect width="120" height="50" rx="11" fill="#fff" stroke="#cfe0f8"/><circle cx="17" cy="17" r="8" fill="#0869ff"/><circle cx="17" cy="17" r="3" fill="#fff"/><text x="31" y="20" font-family="Arial,sans-serif" font-size="9" font-weight="700" fill="#0869ff">★★★★★</text><rect x="31" y="29" width="70" height="4" rx="2" fill="#d9e7fb"/><rect x="31" y="38" width="48" height="3" rx="1.5" fill="#edf3fb"/></g><g transform="translate(252.66666666666669 238) rotate(4 60 25)"><rect width="120" height="50" rx="11" fill="#fff" stroke="#cfe0f8"/><circle cx="17" cy="17" r="8" fill="#0869ff"/><circle cx="17" cy="17" r="3" fill="#fff"/><text x="31" y="20" font-family="Arial,sans-serif" font-size="9" font-weight="700" fill="#0869ff">★★★★★</text><rect x="31" y="29" width="70" height="4" rx="2" fill="#d9e7fb"/><rect x="31" y="38" width="48" height="3" rx="1.5" fill="#edf3fb"/></g><g transform="translate(347.33333333333337 245) rotate(-3 60 25)"><rect width="120" height="50" rx="11" fill="#fff" stroke="#cfe0f8"/><circle cx="17" cy="17" r="8" fill="#0869ff"/><circle cx="17" cy="17" r="3" fill="#fff"/><text x="31" y="20" font-family="Arial,sans-serif" font-size="9" font-weight="700" fill="#0869ff">★★★★★</text><rect x="31" y="29" width="70" height="4" rx="2" fill="#d9e7fb"/><rect x="31" y="38" width="48" height="3" rx="1.5" fill="#edf3fb"/></g><g transform="translate(442 238) rotate(5 60 25)"><rect width="120" height="50" rx="11" fill="#fff" stroke="#cfe0f8"/><circle cx="17" cy="17" r="8" fill="#0869ff"/><circle cx="17" cy="17" r="3" fill="#fff"/><text x="31" y="20" font-family="Arial,sans-serif" font-size="9" font-weight="700" fill="#0869ff">★★★★★</text><rect x="31" y="29" width="70" height="4" rx="2" fill="#d9e7fb"/><rect x="31" y="38" width="48" height="3" rx="1.5" fill="#edf3fb"/></g><g transform="translate(158 214) rotate(-4 60 25)"><rect width="120" height="50" rx="11" fill="#fff" stroke="#cfe0f8"/><circle cx="17" cy="17" r="8" fill="#0869ff"/><circle cx="17" cy="17" r="3" fill="#fff"/><text x="31" y="20" font-family="Arial,sans-serif" font-size="9" font-weight="700" fill="#0869ff">★★★★★</text><rect x="31" y="29" width="70" height="4" rx="2" fill="#d9e7fb"/><rect x="31" y="38" width="48" height="3" rx="1.5" fill="#edf3fb"/></g><g transform="translate(252.66666666666669 207) rotate(2 60 25)"><rect width="120" height="50" rx="11" fill="#fff" stroke="#cfe0f8"/><circle cx="17" cy="17" r="8" fill="#0869ff"/><circle cx="17" cy="17" r="3" fill="#fff"/><text x="31" y="20" font-family="Arial,sans-serif" font-size="9" font-weight="700" fill="#0869ff">★★★★★</text><rect x="31" y="29" width="70" height="4" rx="2" fill="#d9e7fb"/><rect x="31" y="38" width="48" height="3" rx="1.5" fill="#edf3fb"/></g><g transform="translate(347.33333333333337 214) rotate(-6 60 25)"><rect width="120" height="50" rx="11" fill="#fff" stroke="#cfe0f8"/><circle cx="17" cy="17" r="8" fill="#0869ff"/><circle cx="17" cy="17" r="3" fill="#fff"/><text x="31" y="20" font-family="Arial,sans-serif" font-size="9" font-weight="700" fill="#0869ff">★★★★★</text><rect x="31" y="29" width="70" height="4" rx="2" fill="#d9e7fb"/><rect x="31" y="38" width="48" height="3" rx="1.5" fill="#edf3fb"/></g><g transform="translate(442 207) rotate(4 60 25)"><rect width="120" height="50" rx="11" fill="#fff" stroke="#cfe0f8"/><circle cx="17" cy="17" r="8" fill="#0869ff"/><circle cx="17" cy="17" r="3" fill="#fff"/><text x="31" y="20" font-family="Arial,sans-serif" font-size="9" font-weight="700" fill="#0869ff">★★★★★</text><rect x="31" y="29" width="70" height="4" rx="2" fill="#d9e7fb"/><rect x="31" y="38" width="48" height="3" rx="1.5" fill="#edf3fb"/></g><g transform="translate(158 183) rotate(-3 60 25)"><rect width="120" height="50" rx="11" fill="#fff" stroke="#cfe0f8"/><circle cx="17" cy="17" r="8" fill="#0869ff"/><circle cx="17" cy="17" r="3" fill="#fff"/><text x="31" y="20" font-family="Arial,sans-serif" font-size="9" font-weight="700" fill="#0869ff">★★★★★</text><rect x="31" y="29" width="70" height="4" rx="2" fill="#d9e7fb"/><rect x="31" y="38" width="48" height="3" rx="1.5" fill="#edf3fb"/></g><g transform="translate(252.66666666666669 176) rotate(5 60 25)"><rect width="120" height="50" rx="11" fill="#fff" stroke="#cfe0f8"/><circle cx="17" cy="17" r="8" fill="#0869ff"/><circle cx="17" cy="17" r="3" fill="#fff"/><text x="31" y="20" font-family="Arial,sans-serif" font-size="9" font-weight="700" fill="#0869ff">★★★★★</text><rect x="31" y="29" width="70" height="4" rx="2" fill="#d9e7fb"/><rect x="31" y="38" width="48" height="3" rx="1.5" fill="#edf3fb"/></g><g transform="translate(347.33333333333337 183) rotate(-4 60 25)"><rect width="120" height="50" rx="11" fill="#fff" stroke="#cfe0f8"/><circle cx="17" cy="17" r="8" fill="#0869ff"/><circle cx="17" cy="17" r="3" fill="#fff"/><text x="31" y="20" font-family="Arial,sans-serif" font-size="9" font-weight="700" fill="#0869ff">★★★★★</text><rect x="31" y="29" width="70" height="4" rx="2" fill="#d9e7fb"/><rect x="31" y="38" width="48" height="3" rx="1.5" fill="#edf3fb"/></g><g transform="translate(442 176) rotate(2 60 25)"><rect width="120" height="50" rx="11" fill="#fff" stroke="#cfe0f8"/><circle cx="17" cy="17" r="8" fill="#0869ff"/><circle cx="17" cy="17" r="3" fill="#fff"/><text x="31" y="20" font-family="Arial,sans-serif" font-size="9" font-weight="700" fill="#0869ff">★★★★★</text><rect x="31" y="29" width="70" height="4" rx="2" fill="#d9e7fb"/><rect x="31" y="38" width="48" height="3" rx="1.5" fill="#edf3fb"/></g><g transform="translate(158 152) rotate(-6 60 25)"><rect width="120" height="50" rx="11" fill="#fff" stroke="#cfe0f8"/><circle cx="17" cy="17" r="8" fill="#0869ff"/><circle cx="17" cy="17" r="3" fill="#fff"/><text x="31" y="20" font-family="Arial,sans-serif" font-size="9" font-weight="700" fill="#0869ff">★★★★★</text><rect x="31" y="29" width="70" height="4" rx="2" fill="#d9e7fb"/><rect x="31" y="38" width="48" height="3" rx="1.5" fill="#edf3fb"/></g><g transform="translate(252.66666666666669 145) rotate(4 60 25)"><rect width="120" height="50" rx="11" fill="#fff" stroke="#cfe0f8"/><circle cx="17" cy="17" r="8" fill="#0869ff"/><circle cx="17" cy="17" r="3" fill="#fff"/><text x="31" y="20" font-family="Arial,sans-serif" font-size="9" font-weight="700" fill="#0869ff">★★★★★</text><rect x="31" y="29" width="70" height="4" rx="2" fill="#d9e7fb"/><rect x="31" y="38" width="48" height="3" rx="1.5" fill="#edf3fb"/></g><g transform="translate(347.33333333333337 152) rotate(-3 60 25)"><rect width="120" height="50" rx="11" fill="#fff" stroke="#cfe0f8"/><circle cx="17" cy="17" r="8" fill="#0869ff"/><circle cx="17" cy="17" r="3" fill="#fff"/><text x="31" y="20" font-family="Arial,sans-serif" font-size="9" font-weight="700" fill="#0869ff">★★★★★</text><rect x="31" y="29" width="70" height="4" rx="2" fill="#d9e7fb"/><rect x="31" y="38" width="48" height="3" rx="1.5" fill="#edf3fb"/></g><g transform="translate(442 145) rotate(5 60 25)"><rect width="120" height="50" rx="11" fill="#fff" stroke="#cfe0f8"/><circle cx="17" cy="17" r="8" fill="#0869ff"/><circle cx="17" cy="17" r="3" fill="#fff"/><text x="31" y="20" font-family="Arial,sans-serif" font-size="9" font-weight="700" fill="#0869ff">★★★★★</text><rect x="31" y="29" width="70" height="4" rx="2" fill="#d9e7fb"/><rect x="31" y="38" width="48" height="3" rx="1.5" fill="#edf3fb"/></g><g transform="translate(158 121) rotate(-4 60 25)"><rect width="120" height="50" rx="11" fill="#fff" stroke="#cfe0f8"/><circle cx="17" cy="17" r="8" fill="#0869ff"/><circle cx="17" cy="17" r="3" fill="#fff"/><text x="31" y="20" font-family="Arial,sans-serif" font-size="9" font-weight="700" fill="#0869ff">★★★★★</text><rect x="31" y="29" width="70" height="4" rx="2" fill="#d9e7fb"/><rect x="31" y="38" width="48" height="3" rx="1.5" fill="#edf3fb"/></g><g transform="translate(252.66666666666669 114) rotate(2 60 25)"><rect width="120" height="50" rx="11" fill="#fff" stroke="#cfe0f8"/><circle cx="17" cy="17" r="8" fill="#0869ff"/><circle cx="17" cy="17" r="3" fill="#fff"/><text x="31" y="20" font-family="Arial,sans-serif" font-size="9" font-weight="700" fill="#0869ff">★★★★★</text><rect x="31" y="29" width="70" height="4" rx="2" fill="#d9e7fb"/><rect x="31" y="38" width="48" height="3" rx="1.5" fill="#edf3fb"/></g></g></svg>