<svg xmlns="http://www.w3.org/2000/svg" viewBox="0 0 720 520" role="img" aria-labelledby="t d"><title id="t">Authenticité des avis en ligne</title><desc id="d">Illustration de fiches d'avis et de leur vérification.</desc><defs><linearGradient id="bg" x2="1" y2="1"><stop stop-color="#f7eaee"/><stop offset="1" stop-color="#f6f3ef"/></linearGradient><filter id="s"><feDropShadow dy="15" stdDeviation="16" flood-color="#431727" flood-opacity=".11"/></filter></defs><rect width="720" height="520" rx="28" fill="url(#bg)"/><g filter="url(#s)"><rect x="105" y="85" width="330" height="350" rx="22" fill="#fff"/><rect x="285" y="140" width="330" height="295" rx="22" fill="#fff"/></g><g fill="#d5a34d"><path d="M145 135l7 14 16 2-12 11 3 16-14-8-14 8 3-16-12-11 16-2z"/><path d="M177 135l7 14 16 2-12 11 3 16-14-8-14 8 3-16-12-11 16-2z"/><path d="M209 135l7 14 16 2-12 11 3 16-14-8-14 8 3-16-12-11 16-2z"/></g><path d="M145 205h245m-245 22h210m-210 22h225" stroke="#e7e1e2" stroke-width="8" stroke-linecap="round"/><rect x="145" y="290" width="115" height="28" rx="14" fill="#f6e9ed"/><text x="202" y="309" text-anchor="middle" font-family="Arial,sans-serif" font-size="10" letter-spacing="1" fill="#7c233c">AVIS PUBLIÉ</text><circle cx="450" cy="235" r="49" fill="#f5e6ea"/><path d="M426 236l17 17 34-38" fill="none" stroke="#7c233c" stroke-width="7" stroke-linecap="round" stroke-linejoin="round"/><path d="M330 330h235m-235 22h190m-190 22h215" stroke="#e7e1e2" stroke-width="8" stroke-linecap="round"/><text x="450" y="414" text-anchor="middle" font-family="Arial,sans-serif" font-size="10" letter-spacing="1.2" fill="#7c233c">VÉRIFICATION & TRANSPARENCE</text></svg>