<svg xmlns="http://www.w3.org/2000/svg" viewBox="0 0 720 520" role="img" aria-labelledby="t d"><title id="t">Signalement d'un contenu</title><desc id="d">Parcours de signalement avec étapes documentées.</desc><defs><linearGradient id="bg" x2="1" y2="1"><stop stop-color="#f4e8ec"/><stop offset="1" stop-color="#f7f4ef"/></linearGradient><filter id="s"><feDropShadow dy="15" stdDeviation="16" flood-color="#431727" flood-opacity=".12"/></filter></defs><rect width="720" height="520" rx="28" fill="url(#bg)"/><path d="M150 270H570" stroke="#d6b6c0" stroke-width="4" stroke-linecap="round"/><g filter="url(#s)"><rect x="75" y="145" width="165" height="220" rx="20" fill="#fff"/><rect x="278" y="145" width="165" height="220" rx="20" fill="#fff"/><rect x="481" y="145" width="165" height="220" rx="20" fill="#fff"/></g><g fill="#f5e7eb"><circle cx="157" cy="215" r="34"/><circle cx="360" cy="215" r="34"/><circle cx="563" cy="215" r="34"/></g><g fill="none" stroke="#7c233c" stroke-width="4" stroke-linecap="round" stroke-linejoin="round"><path d="M144 214h26m-26 12h18m-18-24h20"/><path d="M348 198h24v34h-24zM354 207h12m-12 8h12m-12 8h8"/><path d="M550 215l9 9 18-21"/></g><g font-family="Arial,sans-serif" text-anchor="middle"><text x="157" y="286" font-size="12" font-weight="700" fill="#2b1720">Documenter</text><text x="157" y="307" font-size="10" fill="#81747a">URL, date, contexte</text><text x="360" y="286" font-size="12" font-weight="700" fill="#2b1720">Signaler</text><text x="360" y="307" font-size="10" fill="#81747a">Motif précis</text><text x="563" y="286" font-size="12" font-weight="700" fill="#2b1720">Suivre</text><text x="563" y="307" font-size="10" fill="#81747a">Réponse, recours</text></g><g fill="#7c233c"><circle cx="258" cy="270" r="5"/><circle cx="461" cy="270" r="5"/></g></svg>